# xmcd
#
# Track frame offsets:
#	150
#	20880
#	42855
#	62947
#	89550
#	108920
#	132695
#	149962
#	174445
#	209980
#
# Disc length: 3132 seconds
#
# Revision: 0
# Processed by: cddbd v1.5.1PL2 Copyright (c) Steve Scherf et al.
# Submitted via: dBpowerAMP V4.0
#
DISCID=a90c3a0a
DTITLE=Low Skies - All the Love I Could Find
DYEAR=2006
DGENRE=Country
TTITLE0=Track01-Stone Mountain
TTITLE1=Track02-Sweet Young Girls
TTITLE2=Track03-Levelling
TTITLE3=Track04-You Can't Help Those People
TTITLE4=Track05-It isTrue
TTITLE5=Track06-The Cause of it
TTITLE6=Track07-To Fail You
TTITLE7=Track08-Cousin
TTITLE8=Track09-Torture
TTITLE9=Track10-By Your Full Name
EXTD=All the Love I Could Find
EXTT0=
EXTT1=
EXTT2=
EXTT3=
EXTT4=
EXTT5=
EXTT6=
EXTT7=
EXTT8=
EXTT9=
PLAYORDER=
